<svg xmlns="http://www.w3.org/2000/svg" width="134.225" height="41" viewBox="0 0 134.225 41">
  <g id="그룹_5110" data-name="그룹 5110" transform="translate(-67 -148)">
    <g id="logo" transform="translate(67 149)">
      <circle id="타원_2" data-name="타원 2" cx="20.5" cy="20.5" r="20.5" transform="translate(0 -1)" fill="#2865ff"/>
      <path id="패스_8383" data-name="패스 8383" d="M3.25-4.29l.26.13a.823.823,0,0,0,.1.416,1.855,1.855,0,0,0,.715.611A7.289,7.289,0,0,0,5.551-2.6a10.657,10.657,0,0,0,1.443.377,7.334,7.334,0,0,0,1.352.143q.442,0,1.144-.065a6.808,6.808,0,0,0,1.378-.273,3.876,3.876,0,0,0,1.17-.572,1.139,1.139,0,0,0,.494-.962.97.97,0,0,0-.455-.884,3.328,3.328,0,0,0-1.2-.416,12.935,12.935,0,0,0-1.69-.169q-.949-.039-1.937-.117A17.653,17.653,0,0,1,5.317-5.8a5.362,5.362,0,0,1-1.69-.611,3.362,3.362,0,0,1-1.2-1.17,3.662,3.662,0,0,1-.455-1.937A3.61,3.61,0,0,1,2.353-11.1,3.852,3.852,0,0,1,3.51-12.48a6.374,6.374,0,0,1,1.976-.975,9.371,9.371,0,0,1,2.808-.377,12.041,12.041,0,0,1,2.392.208,17.744,17.744,0,0,1,1.755.442q.741.234,1.248.442a2.329,2.329,0,0,0,.845.208.717.717,0,0,0,.52-.156l.312.208L13.572-9.23l-.26-.1a1.433,1.433,0,0,0-.208-.6,2.221,2.221,0,0,0-.689-.611,5.975,5.975,0,0,0-1.131-.533,9.208,9.208,0,0,0-1.4-.377A8.076,8.076,0,0,0,8.372-11.6a8.03,8.03,0,0,0-1.183.091,5.57,5.57,0,0,0-1.1.273,2.437,2.437,0,0,0-.819.481.966.966,0,0,0-.325.741,1.059,1.059,0,0,0,.455.936,3.315,3.315,0,0,0,1.2.468,11.25,11.25,0,0,0,1.69.208q.949.052,1.937.13a15.788,15.788,0,0,1,1.937.273,5.6,5.6,0,0,1,1.69.624,3.4,3.4,0,0,1,1.2,1.157,3.537,3.537,0,0,1,.455,1.9,3.336,3.336,0,0,1-.715,2.21A5.04,5.04,0,0,1,13-.754a8.027,8.027,0,0,1-2.3.663A17.037,17.037,0,0,1,8.4.078,15.276,15.276,0,0,1,5.915-.091,9.275,9.275,0,0,1,4.251-.507,11.146,11.146,0,0,1,3.2-.949a1.563,1.563,0,0,0-.676-.2.432.432,0,0,0-.338.208L1.82-1.144Z" transform="translate(12 27)" fill="#fff"/>
    </g>
    <path id="패스_8384" data-name="패스 8384" d="M1.675-12.15h3.45v1.6h.05a4.143,4.143,0,0,1,.587-.663,4.445,4.445,0,0,1,.85-.612,5.289,5.289,0,0,1,1.063-.45A4.186,4.186,0,0,1,8.9-12.45a6.262,6.262,0,0,1,2.45.462,5.463,5.463,0,0,1,1.887,1.3A5.8,5.8,0,0,1,14.45-8.7a7.233,7.233,0,0,1,.425,2.525,7.657,7.657,0,0,1-.388,2.437,6.708,6.708,0,0,1-1.1,2.062A5.374,5.374,0,0,1,11.65-.237,4.931,4.931,0,0,1,9.325.3,6.443,6.443,0,0,1,7.137-.062,3.5,3.5,0,0,1,5.475-1.3h-.05v7H1.675Zm3.45,6.075A3.144,3.144,0,0,0,5.912-3.85,2.867,2.867,0,0,0,8.125-3a2.867,2.867,0,0,0,2.213-.85,3.144,3.144,0,0,0,.787-2.225A3.144,3.144,0,0,0,10.338-8.3a2.867,2.867,0,0,0-2.213-.85,2.867,2.867,0,0,0-2.213.85A3.144,3.144,0,0,0,5.125-6.075Zm11.95-6.075h3.75v1.95h.05A4.609,4.609,0,0,1,22.3-11.887a3.6,3.6,0,0,1,2.075-.562q.325,0,.65.025a3.219,3.219,0,0,1,.6.1V-8.9a5.664,5.664,0,0,0-.788-.187,5.1,5.1,0,0,0-.812-.062,3.985,3.985,0,0,0-1.7.3,2.257,2.257,0,0,0-.963.838,3.183,3.183,0,0,0-.437,1.287,12.537,12.537,0,0,0-.1,1.65V0h-3.75ZM26.35-6.075A6.365,6.365,0,0,1,26.875-8.7a6.043,6.043,0,0,1,1.438-2.012A6.348,6.348,0,0,1,30.462-12a7.658,7.658,0,0,1,2.637-.45,7.658,7.658,0,0,1,2.638.45,6.348,6.348,0,0,1,2.15,1.288A6.043,6.043,0,0,1,39.325-8.7a6.365,6.365,0,0,1,.525,2.625,6.365,6.365,0,0,1-.525,2.625,6.043,6.043,0,0,1-1.437,2.012A6.348,6.348,0,0,1,35.737-.15,7.658,7.658,0,0,1,33.1.3a7.658,7.658,0,0,1-2.637-.45,6.348,6.348,0,0,1-2.15-1.287A6.043,6.043,0,0,1,26.875-3.45,6.365,6.365,0,0,1,26.35-6.075Zm3.75,0a3.144,3.144,0,0,0,.788,2.225A2.867,2.867,0,0,0,33.1-3a2.867,2.867,0,0,0,2.213-.85A3.144,3.144,0,0,0,36.1-6.075,3.144,3.144,0,0,0,35.313-8.3,2.867,2.867,0,0,0,33.1-9.15a2.867,2.867,0,0,0-2.212.85A3.144,3.144,0,0,0,30.1-6.075ZM45.85.9a9.076,9.076,0,0,1-.225,2.113,4.064,4.064,0,0,1-.75,1.6,3.42,3.42,0,0,1-1.388,1.025A5.531,5.531,0,0,1,41.35,6q-.425,0-.875-.037A4.383,4.383,0,0,1,39.6,5.8l.2-3.325a2.15,2.15,0,0,0,.975.225,1.073,1.073,0,0,0,.75-.25,1.445,1.445,0,0,0,.4-.625,3.094,3.094,0,0,0,.15-.8Q42.1.6,42.1.25v-12.4h3.75ZM41.8-15.975a2.1,2.1,0,0,1,.638-1.538,2.1,2.1,0,0,1,1.537-.637,2.1,2.1,0,0,1,1.537.637,2.1,2.1,0,0,1,.638,1.538,2.1,2.1,0,0,1-.638,1.538,2.1,2.1,0,0,1-1.537.638,2.1,2.1,0,0,1-1.537-.638A2.1,2.1,0,0,1,41.8-15.975ZM60.05-2.1A5.984,5.984,0,0,1,57.775-.325,6.815,6.815,0,0,1,54.925.3a7.658,7.658,0,0,1-2.638-.45,6.348,6.348,0,0,1-2.15-1.287A6.043,6.043,0,0,1,48.7-3.45a6.365,6.365,0,0,1-.525-2.625A6.365,6.365,0,0,1,48.7-8.7a6.043,6.043,0,0,1,1.438-2.012A6.348,6.348,0,0,1,52.287-12a7.658,7.658,0,0,1,2.638-.45,6,6,0,0,1,2.362.45,4.919,4.919,0,0,1,1.8,1.288A5.863,5.863,0,0,1,60.225-8.7a8.112,8.112,0,0,1,.4,2.625V-4.9h-8.7A2.968,2.968,0,0,0,52.9-3.187a2.758,2.758,0,0,0,1.85.638,2.817,2.817,0,0,0,1.563-.413,4.2,4.2,0,0,0,1.112-1.062ZM56.875-7.45a2.171,2.171,0,0,0-.625-1.625,2.223,2.223,0,0,0-1.675-.675,2.816,2.816,0,0,0-1.1.2,2.757,2.757,0,0,0-.812.513,2.246,2.246,0,0,0-.525.725,2.387,2.387,0,0,0-.212.862Zm14.25-.775a2.1,2.1,0,0,0-.775-.663,2.278,2.278,0,0,0-1.075-.262,2.867,2.867,0,0,0-2.213.85,3.144,3.144,0,0,0-.787,2.225,3.144,3.144,0,0,0,.787,2.225A2.867,2.867,0,0,0,69.275-3a2.022,2.022,0,0,0,1.075-.275,3.278,3.278,0,0,0,.775-.65l2.475,2.6A4.782,4.782,0,0,1,71.537-.062,7.75,7.75,0,0,1,69.275.3a7.658,7.658,0,0,1-2.638-.45,6.348,6.348,0,0,1-2.15-1.287A6.043,6.043,0,0,1,63.05-3.45a6.365,6.365,0,0,1-.525-2.625A6.365,6.365,0,0,1,63.05-8.7a6.043,6.043,0,0,1,1.438-2.012A6.348,6.348,0,0,1,66.637-12a7.658,7.658,0,0,1,2.638-.45,7.75,7.75,0,0,1,2.262.363A4.782,4.782,0,0,1,73.6-10.825Zm12.1-.925h-3.3V-5.1a7.623,7.623,0,0,0,.05.912,1.839,1.839,0,0,0,.225.713,1.137,1.137,0,0,0,.538.462,2.383,2.383,0,0,0,.962.163,6.483,6.483,0,0,0,.788-.062,1.335,1.335,0,0,0,.737-.288V-.075a5.674,5.674,0,0,1-1.3.3A11.994,11.994,0,0,1,80.6.3,7.208,7.208,0,0,1,78.85.1a3.991,3.991,0,0,1-1.4-.638,2.986,2.986,0,0,1-.937-1.138,3.889,3.889,0,0,1-.337-1.7V-9.15h-2.4v-3h2.4v-3.6h3.75v3.6h3.3Z" transform="translate(118 175)" fill="#313131"/>
    <circle id="타원_12" data-name="타원 12" cx="5.5" cy="5.5" r="5.5" transform="translate(102 164)" fill="#282a31"/>
  </g>
</svg>
